<svg width="122" height="27" viewBox="0 0 122 27" fill="none" xmlns="http://www.w3.org/2000/svg">
<path d="M12.2983 3.54545H15.9886V14.8807C15.9886 16.1534 15.6847 17.267 15.0767 18.2216C14.4744 19.1761 13.6307 19.9205 12.5455 20.4545C11.4602 20.983 10.196 21.2472 8.75284 21.2472C7.30398 21.2472 6.03693 20.983 4.9517 20.4545C3.86648 19.9205 3.02273 19.1761 2.42045 18.2216C1.81818 17.267 1.51705 16.1534 1.51705 14.8807V3.54545H5.20739V14.5653C5.20739 15.2301 5.35227 15.821 5.64205 16.3381C5.9375 16.8551 6.35227 17.2614 6.88636 17.5568C7.42045 17.8523 8.04261 18 8.75284 18C9.46875 18 10.0909 17.8523 10.6193 17.5568C11.1534 17.2614 11.5653 16.8551 11.8551 16.3381C12.1506 15.821 12.2983 15.2301 12.2983 14.5653V3.54545ZM19.6767 25.9091V7.90909H23.2562V10.108H23.4182C23.5772 9.75568 23.8074 9.39773 24.1085 9.03409C24.4153 8.66477 24.813 8.35795 25.3017 8.11364C25.796 7.86364 26.4096 7.73864 27.1426 7.73864C28.0971 7.73864 28.9778 7.98864 29.7846 8.48864C30.5914 8.98295 31.2363 9.73011 31.7193 10.7301C32.2022 11.7244 32.4437 12.9716 32.4437 14.4716C32.4437 15.9318 32.2079 17.1648 31.7363 18.1705C31.2704 19.1705 30.6341 19.929 29.8272 20.446C29.0261 20.9574 28.1284 21.2131 27.1341 21.2131C26.4295 21.2131 25.8301 21.0966 25.3358 20.8636C24.8471 20.6307 24.4466 20.3381 24.1341 19.9858C23.8216 19.6278 23.5829 19.267 23.4182 18.9034H23.3074V25.9091H19.6767ZM23.2307 14.4545C23.2307 15.233 23.3386 15.9119 23.5545 16.4915C23.7704 17.071 24.0829 17.5227 24.492 17.8466C24.9011 18.1648 25.3983 18.3239 25.9835 18.3239C26.5744 18.3239 27.0744 18.1619 27.4835 17.8381C27.8926 17.5085 28.2022 17.054 28.4125 16.4744C28.6284 15.8892 28.7363 15.2159 28.7363 14.4545C28.7363 13.6989 28.6312 13.0341 28.421 12.4602C28.2108 11.8864 27.9011 11.4375 27.492 11.1136C27.0829 10.7898 26.5801 10.6278 25.9835 10.6278C25.3926 10.6278 24.8926 10.7841 24.4835 11.0966C24.0801 11.4091 23.7704 11.8523 23.5545 12.4261C23.3386 13 23.2307 13.6761 23.2307 14.4545ZM46.4762 11.642L43.1524 11.8466C43.0955 11.5625 42.9734 11.3068 42.7859 11.0795C42.5984 10.8466 42.3512 10.6619 42.0444 10.5256C41.7433 10.3835 41.3825 10.3125 40.962 10.3125C40.3995 10.3125 39.9251 10.4318 39.5387 10.6705C39.1524 10.9034 38.9592 11.2159 38.9592 11.608C38.9592 11.9205 39.0842 12.1847 39.3342 12.4006C39.5842 12.6165 40.0132 12.7898 40.6211 12.9205L42.9904 13.3977C44.2632 13.6591 45.212 14.0795 45.837 14.6591C46.462 15.2386 46.7745 16 46.7745 16.9432C46.7745 17.8011 46.5217 18.554 46.016 19.2017C45.516 19.8494 44.8285 20.3551 43.9535 20.7188C43.0842 21.0767 42.0813 21.2557 40.945 21.2557C39.212 21.2557 37.8313 20.8949 36.8029 20.1733C35.7802 19.446 35.1808 18.4574 35.0046 17.2074L38.5757 17.0199C38.6836 17.5483 38.945 17.9517 39.3597 18.2301C39.7745 18.5028 40.3058 18.6392 40.9535 18.6392C41.5899 18.6392 42.1012 18.517 42.4876 18.2727C42.8796 18.0227 43.0785 17.7017 43.0842 17.3097C43.0785 16.9801 42.9393 16.7102 42.6666 16.5C42.3938 16.2841 41.9734 16.1193 41.4052 16.0057L39.1382 15.554C37.8597 15.2983 36.908 14.8551 36.283 14.2244C35.6637 13.5937 35.3541 12.7898 35.3541 11.8125C35.3541 10.9716 35.5813 10.2472 36.0359 9.6392C36.4961 9.03125 37.141 8.5625 37.9705 8.23295C38.8058 7.90341 39.783 7.73864 40.9024 7.73864C42.5558 7.73864 43.8569 8.08807 44.8058 8.78693C45.7603 9.4858 46.3171 10.4375 46.4762 11.642ZM53.0705 17.233L53.079 12.8778H53.6074L57.8006 7.90909H61.9682L56.3347 14.4886H55.4739L53.0705 17.233ZM49.7807 21V3.54545H53.4114V21H49.7807ZM57.9626 21L54.1103 15.2983L56.5307 12.733L62.2154 21H57.9626ZM64.4695 21V7.90909H68.1002V21H64.4695ZM66.2934 6.22159C65.7536 6.22159 65.2905 6.04261 64.9041 5.68466C64.5235 5.32102 64.3331 4.88636 64.3331 4.38068C64.3331 3.88068 64.5235 3.4517 64.9041 3.09375C65.2905 2.73011 65.7536 2.54829 66.2934 2.54829C66.8331 2.54829 67.2934 2.73011 67.674 3.09375C68.0604 3.4517 68.2536 3.88068 68.2536 4.38068C68.2536 4.88636 68.0604 5.32102 67.674 5.68466C67.2934 6.04261 66.8331 6.22159 66.2934 6.22159ZM75.3592 3.54545V21H71.7285V3.54545H75.3592ZM82.6183 3.54545V21H78.9876V3.54545H82.6183ZM86.2467 21V7.90909H89.8774V21H86.2467ZM88.0705 6.22159C87.5308 6.22159 87.0677 6.04261 86.6813 5.68466C86.3007 5.32102 86.1103 4.88636 86.1103 4.38068C86.1103 3.88068 86.3007 3.4517 86.6813 3.09375C87.0677 2.73011 87.5308 2.54829 88.0705 2.54829C88.6103 2.54829 89.0705 2.73011 89.4512 3.09375C89.8376 3.4517 90.0308 3.88068 90.0308 4.38068C90.0308 4.88636 89.8376 5.32102 89.4512 5.68466C89.0705 6.04261 88.6103 6.22159 88.0705 6.22159ZM97.1364 13.4318V21H93.5057V7.90909H96.966V10.2188H97.1194C97.4091 9.45739 97.8949 8.85511 98.5768 8.41193C99.2586 7.96307 100.085 7.73864 101.057 7.73864C101.966 7.73864 102.759 7.9375 103.435 8.33523C104.111 8.73295 104.636 9.30114 105.011 10.0398C105.386 10.7727 105.574 11.6477 105.574 12.6648V21H101.943V13.3125C101.949 12.5114 101.744 11.8864 101.33 11.4375C100.915 10.983 100.344 10.7557 99.6165 10.7557C99.1279 10.7557 98.6961 10.8608 98.3211 11.071C97.9518 11.2812 97.662 11.5881 97.4518 11.9915C97.2472 12.3892 97.1421 12.8693 97.1364 13.4318ZM115.053 26.1818C113.877 26.1818 112.868 26.0199 112.028 25.696C111.192 25.3778 110.528 24.9432 110.033 24.392C109.539 23.8409 109.218 23.2216 109.07 22.5341L112.428 22.0824C112.53 22.3438 112.692 22.5881 112.914 22.8153C113.136 23.0426 113.428 23.2244 113.792 23.3608C114.161 23.5028 114.61 23.5739 115.138 23.5739C115.928 23.5739 116.579 23.3807 117.09 22.9943C117.607 22.6136 117.866 21.9744 117.866 21.0767V18.6818H117.712C117.553 19.0455 117.315 19.3892 116.996 19.7131C116.678 20.0369 116.269 20.3011 115.769 20.5057C115.269 20.7102 114.672 20.8125 113.979 20.8125C112.996 20.8125 112.101 20.5852 111.295 20.1307C110.493 19.6705 109.854 18.9687 109.377 18.0256C108.905 17.0767 108.67 15.8778 108.67 14.429C108.67 12.946 108.911 11.7074 109.394 10.7131C109.877 9.71875 110.519 8.97443 111.32 8.48011C112.127 7.9858 113.011 7.73864 113.971 7.73864C114.704 7.73864 115.317 7.86364 115.812 8.11364C116.306 8.35795 116.704 8.66477 117.005 9.03409C117.312 9.39773 117.547 9.75568 117.712 10.108H117.849V7.90909H121.454V21.1278C121.454 22.2415 121.181 23.1733 120.636 23.9233C120.09 24.6733 119.334 25.2358 118.368 25.6108C117.408 25.9915 116.303 26.1818 115.053 26.1818ZM115.13 18.0852C115.715 18.0852 116.209 17.9403 116.613 17.6506C117.022 17.3551 117.334 16.9347 117.55 16.3892C117.772 15.8381 117.883 15.179 117.883 14.4119C117.883 13.6449 117.775 12.9801 117.559 12.4176C117.343 11.8494 117.03 11.4091 116.621 11.0966C116.212 10.7841 115.715 10.6278 115.13 10.6278C114.533 10.6278 114.03 10.7898 113.621 11.1136C113.212 11.4318 112.903 11.875 112.692 12.4432C112.482 13.0114 112.377 13.6676 112.377 14.4119C112.377 15.1676 112.482 15.821 112.692 16.3722C112.908 16.9176 113.218 17.3409 113.621 17.642C114.03 17.9375 114.533 18.0852 115.13 18.0852Z" fill="black"/>
</svg>
